<svg xmlns="http://www.w3.org/2000/svg" version="1.1" xmlns:xlink="http://www.w3.org/1999/xlink" xmlns:svgjs="http://svgjs.dev/svgjs" width="200" height="124" viewBox="0 0 1500 935"><g transform="matrix(1,0,0,1,-0.9090909090909918,0.3785425101214628)"><svg viewBox="0 0 396 247" data-background-color="#000000" preserveAspectRatio="xMidYMid meet" height="935" width="1500" xmlns="http://www.w3.org/2000/svg" xmlns:xlink="http://www.w3.org/1999/xlink"><g id="tight-bounds" transform="matrix(1,0,0,1,0.2400000000000091,-0.09999999999999432)"><svg viewBox="0 0 395.52 247.2" height="247.2" width="395.52"><rect width="395.52" height="247.2" fill="url(#dfdb89df-067c-444e-b34e-293a6f281248)" mask="url(#8ce1f8fc-cce2-47ba-8460-c50fce3ed134)" data-fill-palette-color="tertiary"></rect><g><svg></svg></g><g><svg viewBox="0 0 395.52 247.2" height="247.2" width="395.52"><g transform="matrix(1,0,0,1,106.60936505576208,47.215199999999996)"><svg viewBox="0 0 182.30126988847582 152.7696" height="152.7696" width="182.30126988847582"><g><svg viewBox="0 0 182.30126988847582 152.7696" height="152.7696" width="182.30126988847582"><g><svg viewBox="0 0 182.30126988847582 152.7696" height="152.7696" width="182.30126988847582"><g><svg viewBox="0 0 182.30126988847582 152.7696" height="152.7696" width="182.30126988847582"><g id="textblocktransform"><svg viewBox="0 0 182.30126988847582 152.7696" height="152.7696" width="182.30126988847582" id="textblock"><g><svg viewBox="0 0 182.30126988847582 152.7696" height="152.7696" width="182.30126988847582"><g transform="matrix(1,0,0,1,0,0)"><svg width="182.30126988847582" viewBox="0.5 -26.45 32.1 26.9" height="152.7696" data-palette-color="url(#a13cbecd-91c4-4f0a-a257-510eb3d0db26)"></svg></g></svg></g></svg></g></svg></g></svg></g></svg></g></svg></g><g><path d="M214.751 0c30.402 0 58.24 10.976 79.768 29.183l-11.147 0c-19.26-14.022-42.974-22.294-68.621-22.295-25.647 0-49.361 8.272-68.621 22.295l-11.148 0c21.528-18.206 49.366-29.183 79.769-29.183zM338.351 123.6c0 32.987-12.922 62.956-33.982 85.121v-10.35c16.914-20.251 27.093-46.322 27.093-74.771 0-28.449-10.179-54.52-27.093-74.771v-10.35c21.059 22.165 33.981 52.133 33.982 85.121zM214.751 247.2c-30.402 0-58.24-10.976-79.769-29.183l11.148 0c19.26 14.022 42.974 22.294 68.621 22.295 25.647 0 49.361-8.272 68.621-22.295l11.147 0c-21.528 18.206-49.366 29.183-79.768 29.183z" fill="url(#dfdb89df-067c-444e-b34e-293a6f281248)" stroke="transparent" data-fill-palette-color="tertiary"></path></g></svg></g><defs></defs><mask id="5e9f454e-8f62-44a1-ba98-c5e116848f18"><g id="SvgjsG1594"><svg viewBox="0 0 395.52 247.2" height="247.2" width="395.52"><g><svg></svg></g><g><svg viewBox="0 0 395.52 247.2" height="247.2" width="395.52"><g transform="matrix(1,0,0,1,106.60936505576208,47.215199999999996)"><svg viewBox="0 0 182.30126988847582 152.7696" height="152.7696" width="182.30126988847582"><g><svg viewBox="0 0 182.30126988847582 152.7696" height="152.7696" width="182.30126988847582"><g><svg viewBox="0 0 182.30126988847582 152.7696" height="152.7696" width="182.30126988847582"><g><svg viewBox="0 0 182.30126988847582 152.7696" height="152.7696" width="182.30126988847582"><g id="SvgjsG1593"><svg viewBox="0 0 182.30126988847582 152.7696" height="152.7696" width="182.30126988847582" id="SvgjsSvg1592"><g><svg viewBox="0 0 182.30126988847582 152.7696" height="152.7696" width="182.30126988847582"><g transform="matrix(1,0,0,1,0,0)"><svg width="182.30126988847582" viewBox="0.5 -26.45 32.1 26.9" height="152.7696" data-palette-color="url(#a13cbecd-91c4-4f0a-a257-510eb3d0db26)"><path d="M19.35-26.45Q26.15-26.45 29.38-23.7 32.6-20.95 32.6-16.5L32.6-16.5Q32.6-15 32.2-13.15L32.2-13.15Q31.25-9.05 28.65-5.98 26.05-2.9 22.28-1.23 18.5 0.45 14.1 0.45L14.1 0.45Q7.15 0.45 3.83-2.33 0.5-5.1 0.5-9.7L0.5-9.7Q0.5-11.25 0.9-13.15L0.9-13.15Q1.85-17.05 4.53-20.08 7.2-23.1 11.08-24.78 14.95-26.45 19.35-26.45L19.35-26.45ZM19.2-22Q18.15-22 16.98-20.13 15.8-18.25 14.2-13.05L14.2-13.05Q12.6-7.85 12.6-5.75L12.6-5.75Q12.6-4.65 12.95-4.28 13.3-3.9 13.9-3.9L13.9-3.9Q14.95-3.8 16.07-5.7 17.2-7.6 18.9-13.1L18.9-13.1Q20.45-17.95 20.45-20.15L20.45-20.15Q20.45-21.2 20.13-21.6 19.8-22 19.2-22L19.2-22Z" opacity="1" transform="matrix(1,0,0,1,0,0)" fill="white" class="wordmark-text-0" id="SvgjsPath1591"></path></svg></g></svg></g></svg></g></svg></g></svg></g></svg></g></svg></g><g><path d="M214.751 0c30.402 0 58.24 10.976 79.768 29.183l-11.147 0c-19.26-14.022-42.974-22.294-68.621-22.295-25.647 0-49.361 8.272-68.621 22.295l-11.148 0c21.528-18.206 49.366-29.183 79.769-29.183zM338.351 123.6c0 32.987-12.922 62.956-33.982 85.121v-10.35c16.914-20.251 27.093-46.322 27.093-74.771 0-28.449-10.179-54.52-27.093-74.771v-10.35c21.059 22.165 33.981 52.133 33.982 85.121zM214.751 247.2c-30.402 0-58.24-10.976-79.769-29.183l11.148 0c19.26 14.022 42.974 22.294 68.621 22.295 25.647 0 49.361-8.272 68.621-22.295l11.147 0c-21.528 18.206-49.366 29.183-79.768 29.183z" fill="black" stroke="transparent"></path></g></svg></g><defs><mask></mask></defs></svg><rect width="395.52" height="247.2" fill="black" stroke="none" visibility="hidden"></rect></g></mask><linearGradient x1="0" x2="1" y1="0.5" y2="0.5" id="a13cbecd-91c4-4f0a-a257-510eb3d0db26"><stop stop-color="#ffa62e" offset="0"></stop><stop stop-color="#f71b3d" offset="1"></stop></linearGradient><rect width="395.52" height="247.2" fill="url(#a13cbecd-91c4-4f0a-a257-510eb3d0db26)" mask="url(#5e9f454e-8f62-44a1-ba98-c5e116848f18)" data-fill-palette-color="primary"></rect><mask id="8ce1f8fc-cce2-47ba-8460-c50fce3ed134"><g id="SvgjsG1617"><svg viewBox="0 0 395.52 247.2" height="247.2" width="395.52"><g><svg></svg></g><g><svg viewBox="0 0 395.52 247.2" height="247.2" width="395.52"><g transform="matrix(1,0,0,1,106.60936505576208,47.215199999999996)"><svg viewBox="0 0 182.30126988847582 152.7696" height="152.7696" width="182.30126988847582"><g><svg viewBox="0 0 182.30126988847582 152.7696" height="152.7696" width="182.30126988847582"><g><svg viewBox="0 0 182.30126988847582 152.7696" height="152.7696" width="182.30126988847582"><g><svg viewBox="0 0 182.30126988847582 152.7696" height="152.7696" width="182.30126988847582"><g id="SvgjsG1616"><svg viewBox="0 0 182.30126988847582 152.7696" height="152.7696" width="182.30126988847582" id="SvgjsSvg1615"><g><svg viewBox="0 0 182.30126988847582 152.7696" height="152.7696" width="182.30126988847582"><g transform="matrix(1,0,0,1,0,0)"><svg width="182.30126988847582" viewBox="0.5 -26.45 32.1 26.9" height="152.7696" data-palette-color="url(#a13cbecd-91c4-4f0a-a257-510eb3d0db26)"></svg></g></svg></g></svg></g></svg></g></svg></g></svg></g></svg></g><g><path d="M214.751 0c30.402 0 58.24 10.976 79.768 29.183l-11.147 0c-19.26-14.022-42.974-22.294-68.621-22.295-25.647 0-49.361 8.272-68.621 22.295l-11.148 0c21.528-18.206 49.366-29.183 79.769-29.183zM338.351 123.6c0 32.987-12.922 62.956-33.982 85.121v-10.35c16.914-20.251 27.093-46.322 27.093-74.771 0-28.449-10.179-54.52-27.093-74.771v-10.35c21.059 22.165 33.981 52.133 33.982 85.121zM214.751 247.2c-30.402 0-58.24-10.976-79.769-29.183l11.148 0c19.26 14.022 42.974 22.294 68.621 22.295 25.647 0 49.361-8.272 68.621-22.295l11.147 0c-21.528 18.206-49.366 29.183-79.768 29.183z" fill="white" stroke="transparent"></path></g></svg></g><defs><mask></mask></defs><mask><g id="SvgjsG1614"><svg viewBox="0 0 395.52 247.2" height="247.2" width="395.52"><g><svg></svg></g><g><svg viewBox="0 0 395.52 247.2" height="247.2" width="395.52"><g transform="matrix(1,0,0,1,106.60936505576208,47.215199999999996)"><svg viewBox="0 0 182.30126988847582 152.7696" height="152.7696" width="182.30126988847582"><g><svg viewBox="0 0 182.30126988847582 152.7696" height="152.7696" width="182.30126988847582"><g><svg viewBox="0 0 182.30126988847582 152.7696" height="152.7696" width="182.30126988847582"><g><svg viewBox="0 0 182.30126988847582 152.7696" height="152.7696" width="182.30126988847582"><g id="SvgjsG1613"><svg viewBox="0 0 182.30126988847582 152.7696" height="152.7696" width="182.30126988847582" id="SvgjsSvg1612"><g><svg viewBox="0 0 182.30126988847582 152.7696" height="152.7696" width="182.30126988847582"><g transform="matrix(1,0,0,1,0,0)"><svg width="182.30126988847582" viewBox="0.5 -26.45 32.1 26.9" height="152.7696" data-palette-color="url(#a13cbecd-91c4-4f0a-a257-510eb3d0db26)"><path d="M19.35-26.45Q26.15-26.45 29.38-23.7 32.6-20.95 32.6-16.5L32.6-16.5Q32.6-15 32.2-13.15L32.2-13.15Q31.25-9.05 28.65-5.98 26.05-2.9 22.28-1.23 18.5 0.45 14.1 0.45L14.1 0.45Q7.15 0.45 3.83-2.33 0.5-5.1 0.5-9.7L0.5-9.7Q0.5-11.25 0.9-13.15L0.9-13.15Q1.85-17.05 4.53-20.08 7.2-23.1 11.08-24.78 14.95-26.45 19.35-26.45L19.35-26.45ZM19.2-22Q18.15-22 16.98-20.13 15.8-18.25 14.2-13.05L14.2-13.05Q12.6-7.85 12.6-5.75L12.6-5.75Q12.6-4.65 12.95-4.28 13.3-3.9 13.9-3.9L13.9-3.9Q14.95-3.8 16.07-5.7 17.2-7.6 18.9-13.1L18.9-13.1Q20.45-17.95 20.45-20.15L20.45-20.15Q20.45-21.2 20.13-21.6 19.8-22 19.2-22L19.2-22Z" opacity="1" transform="matrix(1,0,0,1,0,0)" fill="black" class="wordmark-text-0" id="SvgjsPath1611"></path></svg></g></svg></g></svg></g></svg></g></svg></g></svg></g></svg></g><g><path d="M214.751 0c30.402 0 58.24 10.976 79.768 29.183l-11.147 0c-19.26-14.022-42.974-22.294-68.621-22.295-25.647 0-49.361 8.272-68.621 22.295l-11.148 0c21.528-18.206 49.366-29.183 79.769-29.183zM338.351 123.6c0 32.987-12.922 62.956-33.982 85.121v-10.35c16.914-20.251 27.093-46.322 27.093-74.771 0-28.449-10.179-54.52-27.093-74.771v-10.35c21.059 22.165 33.981 52.133 33.982 85.121zM214.751 247.2c-30.402 0-58.24-10.976-79.769-29.183l11.148 0c19.26 14.022 42.974 22.294 68.621 22.295 25.647 0 49.361-8.272 68.621-22.295l11.147 0c-21.528 18.206-49.366 29.183-79.768 29.183z" fill="black" stroke="transparent"></path></g></svg></g><defs><mask></mask></defs></svg><rect width="395.52" height="247.2" fill="black" stroke="none" visibility="hidden"></rect></g></mask></svg><rect width="395.52" height="247.2" fill="black" stroke="none" visibility="hidden"></rect></g></mask><linearGradient x1="0" x2="1" y1="0.5" y2="0.5" id="dfdb89df-067c-444e-b34e-293a6f281248"><stop stop-color="#ffa62e" offset="0"></stop><stop stop-color="#f71b3d" offset="1"></stop></linearGradient></svg><rect width="395.52" height="247.2" fill="none" stroke="none" visibility="hidden"></rect></g></svg></g></svg>